<mxfile host="app.diagrams.net" modified="2024-01-07T07:14:39.746Z" agent="Mozilla/5.0 (Macintosh; Intel Mac OS X 10_15_7) AppleWebKit/537.36 (KHTML, like Gecko) Chrome/121.0.0.0 Safari/537.36 Edg/121.0.0.0" etag="7Pu1C6Sg_IsOctxdO42O" version="22.1.16" type="device">
  <diagram name="Page-1" id="smA1wCBzPTupm17pItpw">
    <mxGraphModel dx="795" dy="764" grid="1" gridSize="10" guides="1" tooltips="1" connect="1" arrows="1" fold="1" page="1" pageScale="1" pageWidth="1200" pageHeight="1600" math="0" shadow="0">
      <root>
        <mxCell id="0" />
        <mxCell id="1" parent="0" />
        <mxCell id="iDg2J8CBYsZtHldnVNwz-5" style="edgeStyle=orthogonalEdgeStyle;rounded=0;orthogonalLoop=1;jettySize=auto;html=1;" edge="1" parent="1" source="iDg2J8CBYsZtHldnVNwz-1" target="iDg2J8CBYsZtHldnVNwz-2">
          <mxGeometry relative="1" as="geometry" />
        </mxCell>
        <mxCell id="iDg2J8CBYsZtHldnVNwz-1" value="&lt;font style=&quot;font-size: 20px;&quot;&gt;ltex&lt;/font&gt;" style="rounded=1;whiteSpace=wrap;html=1;" vertex="1" parent="1">
          <mxGeometry x="120" y="240" width="120" height="60" as="geometry" />
        </mxCell>
        <mxCell id="iDg2J8CBYsZtHldnVNwz-6" style="edgeStyle=orthogonalEdgeStyle;rounded=0;orthogonalLoop=1;jettySize=auto;html=1;" edge="1" parent="1" source="iDg2J8CBYsZtHldnVNwz-2" target="iDg2J8CBYsZtHldnVNwz-4">
          <mxGeometry relative="1" as="geometry" />
        </mxCell>
        <mxCell id="iDg2J8CBYsZtHldnVNwz-2" value="&lt;span style=&quot;font-size: 20px;&quot;&gt;parse&lt;/span&gt;" style="rounded=1;whiteSpace=wrap;html=1;" vertex="1" parent="1">
          <mxGeometry x="260" y="240" width="120" height="60" as="geometry" />
        </mxCell>
        <mxCell id="iDg2J8CBYsZtHldnVNwz-3" value="&lt;span style=&quot;font-size: 20px;&quot;&gt;codegen&lt;/span&gt;" style="rounded=1;whiteSpace=wrap;html=1;" vertex="1" parent="1">
          <mxGeometry x="540" y="240" width="120" height="60" as="geometry" />
        </mxCell>
        <mxCell id="iDg2J8CBYsZtHldnVNwz-7" style="edgeStyle=orthogonalEdgeStyle;rounded=0;orthogonalLoop=1;jettySize=auto;html=1;" edge="1" parent="1" source="iDg2J8CBYsZtHldnVNwz-4" target="iDg2J8CBYsZtHldnVNwz-3">
          <mxGeometry relative="1" as="geometry" />
        </mxCell>
        <mxCell id="iDg2J8CBYsZtHldnVNwz-4" value="&lt;span style=&quot;font-size: 20px;&quot;&gt;IR&lt;/span&gt;" style="rounded=1;whiteSpace=wrap;html=1;" vertex="1" parent="1">
          <mxGeometry x="400" y="240" width="120" height="60" as="geometry" />
        </mxCell>
        <mxCell id="iDg2J8CBYsZtHldnVNwz-9" style="edgeStyle=orthogonalEdgeStyle;rounded=0;orthogonalLoop=1;jettySize=auto;html=1;entryX=0;entryY=0.5;entryDx=0;entryDy=0;" edge="1" parent="1" source="iDg2J8CBYsZtHldnVNwz-8" target="iDg2J8CBYsZtHldnVNwz-1">
          <mxGeometry relative="1" as="geometry" />
        </mxCell>
        <mxCell id="iDg2J8CBYsZtHldnVNwz-8" value="&lt;font style=&quot;font-size: 18px;&quot;&gt;Input&lt;/font&gt;" style="text;html=1;strokeColor=none;fillColor=none;align=center;verticalAlign=middle;whiteSpace=wrap;rounded=0;" vertex="1" parent="1">
          <mxGeometry x="20" y="255" width="60" height="30" as="geometry" />
        </mxCell>
      </root>
    </mxGraphModel>
  </diagram>
</mxfile>
